<svg width="32" height="32" viewBox="0 0 32 32" fill="none" xmlns="http://www.w3.org/2000/svg">
  <g style="mix-blend-mode:multiply">
  <ellipse cx="3.92481" cy="15.985" rx="3.92481" ry="3.92481" fill="#F1DE79"/>
  <ellipse cx="11.7744" cy="15.985" rx="3.92481" ry="3.92481" fill="#F1DE79"/>
  <rect x="3.93982" y="12.0602" width="7.78947" height="7.84962" fill="#F1DE79"/>
  </g>
  <g style="mix-blend-mode:multiply">
  <ellipse cx="15.985" cy="28.0752" rx="3.92481" ry="3.92481" transform="rotate(-90 15.985 28.0752)" fill="#F1DE79"/>
  <ellipse cx="15.985" cy="20.2256" rx="3.92481" ry="3.92481" transform="rotate(-90 15.985 20.2256)" fill="#F1DE79"/>
  <rect x="12.0602" y="28.0602" width="7.78947" height="7.84962" transform="rotate(-90 12.0602 28.0602)" fill="#F1DE79"/>
  </g>
  <g style="mix-blend-mode:multiply">
  <circle cx="7.47533" cy="24.5447" r="3.92481" transform="rotate(-45 7.47533 24.5447)" fill="#F1DE79"/>
  <circle cx="13.0259" cy="18.9941" r="3.92481" transform="rotate(-45 13.0259 18.9941)" fill="#F1DE79"/>
  <rect x="4.71069" y="21.7588" width="7.78947" height="7.84962" transform="rotate(-45 4.71069 21.7588)" fill="#F1DE79"/>
  </g>
  <g style="mix-blend-mode:multiply">
  <circle cx="18.9941" cy="12.9657" r="3.92481" transform="rotate(-45 18.9941 12.9657)" fill="#F1DE79"/>
  <circle cx="24.5447" cy="7.41516" r="3.92481" transform="rotate(-45 24.5447 7.41516)" fill="#F1DE79"/>
  <rect x="16.2295" y="10.1798" width="7.78947" height="7.84962" transform="rotate(-45 16.2295 10.1798)" fill="#F1DE79"/>
  </g>
  <g style="mix-blend-mode:multiply">
  <circle cx="18.9941" cy="18.9641" r="3.92481" transform="rotate(45 18.9941 18.9641)" fill="#F1DE79"/>
  <circle cx="24.5447" cy="24.5146" r="3.92481" transform="rotate(45 24.5447 24.5146)" fill="#F1DE79"/>
  <rect x="21.78" y="16.1995" width="7.78947" height="7.84962" transform="rotate(45 21.78 16.1995)" fill="#F1DE79"/>
  </g>
  <g style="mix-blend-mode:multiply">
  <circle cx="7.44531" cy="7.41515" r="3.92481" transform="rotate(45 7.44531 7.41515)" fill="#F1DE79"/>
  <circle cx="12.9958" cy="12.9657" r="3.92481" transform="rotate(45 12.9958 12.9657)" fill="#F1DE79"/>
  <rect x="10.2312" y="4.65051" width="7.78947" height="7.84962" transform="rotate(45 10.2312 4.65051)" fill="#F1DE79"/>
  </g>
  <g style="mix-blend-mode:multiply">
  <ellipse cx="15.985" cy="11.7744" rx="3.92481" ry="3.92481" transform="rotate(-90 15.985 11.7744)" fill="#F1DE79"/>
  <ellipse cx="15.985" cy="3.9248" rx="3.92481" ry="3.92481" transform="rotate(-90 15.985 3.9248)" fill="#F1DE79"/>
  <rect x="12.0602" y="11.7594" width="7.78947" height="7.84962" transform="rotate(-90 12.0602 11.7594)" fill="#F1DE79"/>
  </g>
  <g style="mix-blend-mode:multiply">
  <ellipse cx="20.2256" cy="15.985" rx="3.92481" ry="3.92481" fill="#F1DE79"/>
  <ellipse cx="28.0752" cy="15.985" rx="3.92481" ry="3.92481" fill="#F1DE79"/>
  <rect x="20.2406" y="12.0602" width="7.78947" height="7.84962" fill="#F1DE79"/>
  </g>
  <ellipse cx="15.985" cy="15.9098" rx="3.92481" ry="3.93985" fill="#353125"/>
  <ellipse cx="15.985" cy="15.8948" rx="3.50376" ry="3.50376" fill="black"/>
</svg>
