<svg xmlns="http://www.w3.org/2000/svg" width="32" height="32" fill="none"><g fill="#F1DE79" style="mix-blend-mode:multiply"><circle cx="3.925" cy="15.985" r="3.925"/><circle cx="11.774" cy="15.985" r="3.925"/><path d="M3.94 12.06h7.789v7.85H3.94z"/></g><g fill="#F1DE79" style="mix-blend-mode:multiply"><circle cx="15.985" cy="28.075" r="3.925" transform="rotate(-90 15.985 28.075)"/><circle cx="15.985" cy="20.226" r="3.925" transform="rotate(-90 15.985 20.226)"/><path d="M12.06 28.06v-7.789h7.85v7.79z"/></g><g fill="#F1DE79" style="mix-blend-mode:multiply"><circle cx="7.475" cy="24.545" r="3.925" transform="rotate(-45 7.475 24.545)"/><circle cx="13.026" cy="18.994" r="3.925" transform="rotate(-45 13.026 18.994)"/><path d="m4.711 21.759 5.508-5.508 5.55 5.55-5.507 5.509z"/></g><g fill="#F1DE79" style="mix-blend-mode:multiply"><circle cx="18.994" cy="12.966" r="3.925" transform="rotate(-45 18.994 12.966)"/><circle cx="24.545" cy="7.415" r="3.925" transform="rotate(-45 24.545 7.415)"/><path d="m16.23 10.18 5.508-5.508 5.55 5.55-5.507 5.508z"/></g><g fill="#F1DE79" style="mix-blend-mode:multiply"><circle cx="18.994" cy="18.964" r="3.925" transform="rotate(45 18.994 18.964)"/><circle cx="24.545" cy="24.515" r="3.925" transform="rotate(45 24.545 24.515)"/><path d="m21.78 16.2 5.507 5.508-5.55 5.55-5.508-5.507z"/></g><g fill="#F1DE79" style="mix-blend-mode:multiply"><circle cx="7.445" cy="7.415" r="3.925" transform="rotate(45 7.445 7.415)"/><circle cx="12.996" cy="12.966" r="3.925" transform="rotate(45 12.996 12.966)"/><path d="m10.23 4.65 5.508 5.508-5.55 5.551-5.508-5.507z"/></g><g fill="#F1DE79" style="mix-blend-mode:multiply"><circle cx="15.985" cy="11.774" r="3.925" transform="rotate(-90 15.985 11.774)"/><circle cx="15.985" cy="3.925" r="3.925" transform="rotate(-90 15.985 3.925)"/><path d="M12.06 11.76V3.97h7.85v7.79z"/></g><g fill="#F1DE79" style="mix-blend-mode:multiply"><circle cx="20.226" cy="15.985" r="3.925"/><circle cx="28.075" cy="15.985" r="3.925"/><path d="M20.241 12.06h7.789v7.85h-7.789z"/></g><ellipse cx="15.985" cy="15.91" fill="#353125" rx="3.925" ry="3.94"/><circle cx="15.985" cy="15.895" r="3.504" fill="#000"/></svg>